<svg id="Layer_1" data-name="Layer 1" xmlns="http://www.w3.org/2000/svg" width="96" height="17" viewBox="0 0 96 17"><defs><style>.cls-1{fill:#fff;}</style></defs><title>ic_stars_5_white</title><g id="Page-1"><g id="TFS-Homepage-MVP--_Commando_-Copy" data-name="TFS-Homepage-MVP--(Commando)-Copy"><g id="ic_stars_5_white" data-name="ic stars 5 white"><g id="Shape"><path class="cls-1" d="M14.57,17a.45.45,0,0,1-.31-.11L9.5,13.08l-4.76,3.8a.5.5,0,0,1-.6,0A.49.49,0,0,1,4,16.34l1.94-5.82L1.26,6.81a.5.5,0,0,1-.16-.55.49.49,0,0,1,.47-.34H7.15L9,.31a.51.51,0,0,1,.94,0l1.88,5.61h5.58a.49.49,0,0,1,.47.34.5.5,0,0,1-.16.55l-4.63,3.71,1.94,5.82a.49.49,0,0,1-.19.56A.52.52,0,0,1,14.57,17Z"/></g><g id="Shape-2" data-name="Shape"><path class="cls-1" d="M33.57,17a.45.45,0,0,1-.31-.11l-4.76-3.8-4.76,3.8a.5.5,0,0,1-.6,0,.49.49,0,0,1-.19-.56l1.94-5.82L20.26,6.81a.5.5,0,0,1-.16-.55.49.49,0,0,1,.47-.34h5.58L28,.31a.51.51,0,0,1,.94,0l1.88,5.61h5.58a.49.49,0,0,1,.47.34.5.5,0,0,1-.16.55l-4.63,3.71,1.94,5.82a.49.49,0,0,1-.19.56A.52.52,0,0,1,33.57,17Z"/></g><g id="Shape-3" data-name="Shape"><path class="cls-1" d="M43.43,17a.52.52,0,0,1-.29-.09.49.49,0,0,1-.19-.56l1.94-5.82L40.26,6.81a.5.5,0,0,1-.16-.55.49.49,0,0,1,.47-.34h5.58L48,.31a.51.51,0,0,1,.94,0l1.88,5.61h5.58a.49.49,0,0,1,.47.34.5.5,0,0,1-.16.55l-4.63,3.71,1.94,5.82a.49.49,0,0,1-.19.56.5.5,0,0,1-.6,0l-4.76-3.8-4.76,3.8A.45.45,0,0,1,43.43,17Z"/></g><g id="Shape-4" data-name="Shape"><path class="cls-1" d="M72.57,17a.45.45,0,0,1-.31-.11l-4.76-3.8-4.76,3.8a.5.5,0,0,1-.6,0,.49.49,0,0,1-.19-.56l1.94-5.82L59.26,6.81a.5.5,0,0,1-.16-.55.49.49,0,0,1,.47-.34h5.58L67,.31a.51.51,0,0,1,.94,0l1.88,5.61h5.58a.49.49,0,0,1,.47.34.5.5,0,0,1-.16.55l-4.63,3.71,1.94,5.82a.49.49,0,0,1-.19.56A.52.52,0,0,1,72.57,17Z"/></g><g id="Shape-5" data-name="Shape"><path class="cls-1" d="M91.57,17a.45.45,0,0,1-.31-.11l-4.76-3.8-4.76,3.8a.5.5,0,0,1-.6,0,.49.49,0,0,1-.19-.56l1.94-5.82L78.26,6.81a.5.5,0,0,1-.16-.55.49.49,0,0,1,.47-.34h5.58L86,.31a.51.51,0,0,1,.94,0l1.88,5.61h5.58a.49.49,0,0,1,.47.34.5.5,0,0,1-.16.55l-4.63,3.71,1.94,5.82a.49.49,0,0,1-.19.56A.52.52,0,0,1,91.57,17Z"/></g></g></g></g></svg>