<?xml version="1.0" encoding="UTF-8"?>
<svg width="33px" height="26px" viewBox="0 0 33 26" version="1.1" xmlns="http://www.w3.org/2000/svg" xmlns:xlink="http://www.w3.org/1999/xlink">
    <!-- Generator: Sketch 49.3 (51167) - http://www.bohemiancoding.com/sketch -->
    <title>quote</title>
    <desc>Created with Sketch.</desc>
    <defs></defs>
    <g id="Page-1" stroke="none" stroke-width="1" fill="none" fill-rule="evenodd">
        <g id="TFS-Homepage-MVP--(Commando)-Copy" transform="translate(-125.000000, -5425.000000)" fill="#FFFFFF">
            <path d="M150.671875,5438.98698 C148.776032,5438.76139 147.20834,5437.96241 145.96875,5436.59002 C144.72916,5435.21764 144.109375,5433.62908 144.109375,5431.8243 C144.109375,5429.90671 144.720046,5428.28996 145.941406,5426.97397 C147.162767,5425.65798 148.666658,5425 150.453125,5425 C152.494802,5425 154.263013,5425.85538 155.757812,5427.56616 C157.252612,5429.27694 158,5431.35429 158,5433.79826 C158,5441.13019 154.04431,5446.86404 146.132812,5451 L144,5446.93926 C148.447939,5444.68329 150.671875,5442.03255 150.671875,5438.98698 Z M131.726562,5438.98698 C129.794261,5438.76139 128.20834,5437.96241 126.96875,5436.59002 C125.72916,5435.21764 125.109375,5433.62908 125.109375,5431.8243 C125.109375,5429.90671 125.720046,5428.28996 126.941406,5426.97397 C128.162767,5425.65798 129.684887,5425 131.507812,5425 C133.549489,5425 135.308586,5425.85538 136.785156,5427.56616 C138.261726,5429.27694 139,5431.35429 139,5433.79826 C139,5441.13019 135.04431,5446.86404 127.132812,5451 L125,5446.93926 C129.484397,5444.68329 131.726562,5442.03255 131.726562,5438.98698 Z" id="quote" transform="translate(141.500000, 5438.000000) scale(-1, -1) translate(-141.500000, -5438.000000) "></path>
        </g>
    </g>
</svg>